<svg width="512" height="512" viewBox="0 0 512 512" fill="none" xmlns="http://www.w3.org/2000/svg">
<g clip-path="url(#clip0_401_2)">
<path fill-rule="evenodd" clip-rule="evenodd" d="M106.667 64C83.1025 64 64 83.1025 64 106.667V405.333C64 428.898 83.1025 448 106.667 448H298.667C310.637 448 321.455 443.072 329.203 435.132L341.715 438.483C364.476 444.582 387.872 431.076 393.971 408.314L449.184 202.25C455.283 179.489 441.777 156.093 419.014 149.994L341.333 129.18V106.667C341.333 83.1025 322.231 64 298.667 64H106.667ZM341.333 394.21V173.351L407.972 191.207L352.757 397.271L341.333 394.21Z" fill="white"/>
<circle cx="309" cy="373" r="96" fill="#D946EF"/>
<path d="M298.667 430.222C298.667 436.113 303.443 440.889 309.333 440.889C315.224 440.889 320 436.113 320 430.222V384H366.222C372.113 384 376.889 379.224 376.889 373.333C376.889 367.442 372.113 362.667 366.222 362.667H320V316.444C320 310.553 315.224 305.778 309.333 305.778C303.443 305.778 298.667 310.553 298.667 316.444V362.667H252.444C246.553 362.667 241.778 367.442 241.778 373.333C241.778 379.224 246.553 384 252.444 384H298.667V430.222Z" fill="white"/>
</g>
<defs>
<clipPath id="clip0_401_2">
<rect width="512" height="512" fill="white"/>
</clipPath>
</defs>
</svg>
